<svg height="512pt" viewBox="0 0 512 512" width="512pt" xmlns="http://www.w3.org/2000/svg"><path d="m512 256c0 141.386719-114.613281 256-256 256s-256-114.613281-256-256 114.613281-256 256-256 256 114.613281 256 256zm0 0" fill="#fd73b1"/><path d="m512 256c0-4.597656-.128906-9.164062-.367188-13.699219l-98.085937-98.085937-14.761719 15.710937-68.152344-68.152343-226.847656 154.84375 125.210938 125.210937c-25.582032 19-69.011719 51.472656-69.011719 51.472656l88.589844 88.585938c2.464843.066406 4.941406.113281 7.425781.113281 141.386719 0 256-114.613281 256-256zm0 0" fill="#fc4597"/><path d="m356.9375 118.128906c-3.707031 0-7.347656.277344-10.914062.800782-13.445313-36.683594-48.675782-62.863282-90.023438-62.863282s-76.578125 26.179688-90.023438 62.863282c-3.5625-.523438-7.207031-.800782-10.914062-.800782-41.132812 0-74.476562 33.34375-74.476562 74.476563 0 41.132812 33.34375 74.476562 74.476562 74.476562 1.65625 0 3.296875-.058593 4.921875-.167969v156.382813h192.03125v-156.382813c1.625.109376 3.265625.167969 4.921875.167969 41.132812 0 74.476562-33.34375 74.476562-74.476562 0-41.132813-33.34375-74.476563-74.476562-74.476563zm0 0" fill="#fff"/><path d="m356.9375 118.128906c-3.707031 0-7.347656.277344-10.914062.800782-13.445313-36.683594-48.675782-62.863282-90.023438-62.863282-.050781 0-.101562.003906-.148438.003906v367.226563h96.164063v-156.382813c1.625.109376 3.265625.167969 4.921875.167969 41.132812 0 74.476562-33.34375 74.476562-74.476562 0-41.132813-33.34375-74.476563-74.476562-74.476563zm0 0" fill="#f9efef"/><path d="m159.984375 364.796875h192.03125v58.503906h-192.03125zm0 0" fill="#fed59d"/><path d="m255.851562 364.796875h96.164063v58.503906h-96.164063zm0 0" fill="#fda637"/></svg>